<svg width="375" height="430" viewBox="0 0 375 430" fill="none" xmlns="http://www.w3.org/2000/svg">
<path d="M0.354381 138.593L5.85066 128.593C6.9787 126.469 10.0213 126.469 11.1494 128.593L16.6456 138.593C17.7071 140.591 16.2589 143 13.9963 143H3.00373C0.741109 143 -0.707139 140.591 0.354381 138.593Z" fill="#5C43B7"/>
<path d="M25.3892 138.529L31.3853 128.529C32.5322 126.49 35.4678 126.49 36.6147 128.529L42.6108 138.529C43.7357 140.529 42.2906 143 39.9961 143H28.0039C25.7095 143 24.2643 140.529 25.3892 138.529Z" fill="#5C43B7"/>
<path d="M52.3202 138.658L57.3167 128.658C58.4223 126.447 61.5777 126.447 62.6833 128.658L67.6798 138.658C68.6771 140.653 67.2266 143 64.9965 143H55.0035C52.7734 143 51.3229 140.653 52.3202 138.658Z" fill="#5C43B7"/>
<path d="M328.497 98.4078L315.497 106.404C313.501 107.559 313.501 110.441 315.497 111.596L328.497 119.592C330.497 120.75 333 119.307 333 116.996L333 101.004C333 98.693 330.497 97.2499 328.497 98.4078Z" fill="#FFED56"/>
<path d="M328.497 131.408L315.497 139.404C313.501 140.559 313.501 143.441 315.497 144.596L328.497 152.592C330.497 153.75 333 152.307 333 149.996L333 134.004C333 131.693 330.497 130.25 328.497 131.408Z" fill="#FFED56"/>
<path d="M328.549 164.378L315.549 171.874C313.484 173.016 313.484 175.984 315.549 177.126L328.549 184.622C330.548 185.727 333 184.281 333 181.996L333 167.004C333 164.719 330.548 163.273 328.549 164.378Z" fill="#FFED56"/>
<path d="M328.497 0.407756L315.497 8.40373C313.501 9.55922 313.501 12.4408 315.497 13.5963L328.497 21.5923C330.497 22.7501 333 21.307 333 18.996L333 3.00404C333 0.69304 330.497 -0.750138 328.497 0.407756Z" fill="#FFED56"/>
<path d="M328.497 33.4078L315.497 41.4037C313.501 42.5592 313.501 45.4408 315.497 46.5963L328.497 54.5922C330.497 55.7501 333 54.307 333 51.996L333 36.004C333 33.693 330.497 32.2499 328.497 33.4078Z" fill="#FFED56"/>
<path d="M328.549 66.3781L315.549 73.8743C313.484 75.0156 313.484 77.9844 315.549 79.1257L328.549 86.6218C330.548 87.7268 333 86.2806 333 83.9961L333 69.0039C333 66.7194 330.548 65.2732 328.549 66.3781Z" fill="#FFED56"/>
<path d="M298.497 98.4078L285.497 106.404C283.501 107.559 283.501 110.441 285.497 111.596L298.497 119.592C300.497 120.75 303 119.307 303 116.996L303 101.004C303 98.693 300.497 97.2499 298.497 98.4078Z" fill="#FFED56"/>
<path d="M298.497 131.408L285.497 139.404C283.501 140.559 283.501 143.441 285.497 144.596L298.497 152.592C300.497 153.75 303 152.307 303 149.996L303 134.004C303 131.693 300.497 130.25 298.497 131.408Z" fill="#FFED56"/>
<path d="M298.549 164.378L285.549 171.874C283.484 173.016 283.484 175.984 285.549 177.126L298.549 184.622C300.548 185.727 303 184.281 303 181.996L303 167.004C303 164.719 300.548 163.273 298.549 164.378Z" fill="#FFED56"/>
<path d="M298.497 0.407756L285.497 8.40373C283.501 9.55922 283.501 12.4408 285.497 13.5963L298.497 21.5923C300.497 22.7501 303 21.307 303 18.996L303 3.00404C303 0.69304 300.497 -0.750138 298.497 0.407756Z" fill="#FFED56"/>
<path d="M298.497 33.4078L285.497 41.4037C283.501 42.5592 283.501 45.4408 285.497 46.5963L298.497 54.5922C300.497 55.7501 303 54.307 303 51.996L303 36.004C303 33.693 300.497 32.2499 298.497 33.4078Z" fill="#FFED56"/>
<path d="M298.549 66.3781L285.549 73.8743C283.484 75.0156 283.484 77.9844 285.549 79.1257L298.549 86.6218C300.548 87.7268 303 86.2806 303 83.9961L303 69.0039C303 66.7194 300.548 65.2732 298.549 66.3781Z" fill="#FFED56"/>
<path d="M363.407 44.3544L373.407 49.8507C375.531 50.9787 375.531 54.0213 373.407 55.1494L363.407 60.6456C361.409 61.7071 359 60.2589 359 57.9963L359 47.0037C359 44.7411 361.409 43.2929 363.407 44.3544Z" fill="#FFED56"/>
<path d="M363.471 69.3892L373.471 75.3853C375.51 76.5322 375.51 79.4678 373.471 80.6147L363.471 86.6108C361.471 87.7357 359 86.2906 359 83.9961L359 72.0039C359 69.7095 361.471 68.2643 363.471 69.3892Z" fill="#FFED56"/>
<path d="M363.342 96.3202L373.342 101.317C375.553 102.422 375.553 105.578 373.342 106.683L363.342 111.68C361.347 112.677 359 111.227 359 108.997L359 99.0035C359 96.7734 361.347 95.3229 363.342 96.3202Z" fill="#FFED56"/>
<path d="M23.5031 331.592L36.5031 323.596C38.499 322.441 38.499 319.559 36.5031 318.404L23.5031 310.408C21.5031 309.25 19 310.693 19 313.004L19 328.996C19 331.307 21.5031 332.75 23.5031 331.592Z" fill="#5C43B7"/>
<path d="M23.5031 298.592L36.5031 290.596C38.499 289.441 38.499 286.559 36.5031 285.404L23.5031 277.408C21.5031 276.25 19 277.693 19 280.004L19 295.996C19 298.307 21.5031 299.75 23.5031 298.592Z" fill="#5C43B7"/>
<path d="M23.4511 265.622L36.4511 258.126C38.5163 256.984 38.5163 254.016 36.4511 252.874L23.4511 245.378C21.4516 244.273 19 245.719 19 248.004L19 262.996C19 265.281 21.4516 266.727 23.4511 265.622Z" fill="#5C43B7"/>
<path d="M23.5031 429.592L36.5031 421.596C38.499 420.441 38.499 417.559 36.5031 416.404L23.5031 408.408C21.5031 407.25 19 408.693 19 411.004L19 426.996C19 429.307 21.5031 430.75 23.5031 429.592Z" fill="#5C43B7"/>
<path d="M23.5031 396.592L36.5031 388.596C38.499 387.441 38.499 384.559 36.5031 383.404L23.5031 375.408C21.5031 374.25 19 375.693 19 378.004L19 393.996C19 396.307 21.5031 397.75 23.5031 396.592Z" fill="#5C43B7"/>
<path d="M23.4511 363.622L36.4511 356.126C38.5163 354.984 38.5163 352.016 36.4511 350.874L23.4511 343.378C21.4516 342.273 19 343.719 19 346.004L19 360.996C19 363.281 21.4516 364.727 23.4511 363.622Z" fill="#5C43B7"/>
<path d="M53.5031 331.592L66.5031 323.596C68.499 322.441 68.499 319.559 66.5031 318.404L53.5031 310.408C51.5031 309.25 49 310.693 49 313.004L49 328.996C49 331.307 51.5031 332.75 53.5031 331.592Z" fill="#5C43B7"/>
<path d="M53.5031 298.592L66.5031 290.596C68.499 289.441 68.499 286.559 66.5031 285.404L53.5031 277.408C51.5031 276.25 49 277.693 49 280.004L49 295.996C49 298.307 51.5031 299.75 53.5031 298.592Z" fill="#5C43B7"/>
<path d="M53.4511 265.622L66.4511 258.126C68.5163 256.984 68.5163 254.016 66.4511 252.874L53.4511 245.378C51.4516 244.273 49 245.719 49 248.004L49 262.996C49 265.281 51.4516 266.727 53.4511 265.622Z" fill="#5C43B7"/>
<path d="M53.5031 429.592L66.5031 421.596C68.4989 420.441 68.4989 417.559 66.5031 416.404L53.5031 408.408C51.5031 407.25 49 408.693 49 411.004L49 426.996C49 429.307 51.5031 430.75 53.5031 429.592Z" fill="#5C43B7"/>
<path d="M53.5031 396.592L66.5031 388.596C68.499 387.441 68.499 384.559 66.5031 383.404L53.5031 375.408C51.5031 374.25 49 375.693 49 378.004L49 393.996C49 396.307 51.5031 397.75 53.5031 396.592Z" fill="#5C43B7"/>
<path d="M53.4511 363.622L66.4511 356.126C68.5163 354.984 68.5163 352.016 66.4511 350.874L53.4511 343.378C51.4516 342.273 49 343.719 49 346.004L49 360.996C49 363.281 51.4516 364.727 53.4511 363.622Z" fill="#5C43B7"/>
</svg>
