<svg width="312" height="312" viewBox="0 0 312 312" fill="none" xmlns="http://www.w3.org/2000/svg">
<rect width="312" height="312" fill="#E5E5E5"/>
<rect x="-940" y="-214" width="1920" height="1080" fill="#1B1B1B"/>
<mask id="path-2-outside-1_0_1" maskUnits="userSpaceOnUse" x="0" y="0" width="312" height="312" fill="black">
<rect fill="white" width="312" height="312"/>
<path d="M66.8687 80.1143C79.9038 80.6689 96.3018 80.9463 116.062 80.9463L156.312 189.942H156.832L198.746 80.9463H210.706C219.304 80.9463 231.438 80.6689 247.107 80.1143C247.385 81.2236 247.523 81.9863 247.523 82.4023C247.523 82.8877 247.385 83.7544 247.107 85.0024C244.611 85.2104 242.601 85.4185 241.075 85.6265C239.55 85.8345 237.504 86.1812 234.939 86.6665C232.443 87.1519 230.432 87.7412 228.907 88.4346C227.381 89.0586 226.029 89.96 224.851 91.1387C223.672 92.248 223.048 93.5308 222.979 94.9868C222.285 111.281 221.938 130.66 221.938 153.125C221.938 175.937 222.389 197.812 223.291 218.751C223.36 220.554 224.157 222.114 225.683 223.432C227.208 224.68 229.392 225.65 232.235 226.344C235.147 227.037 237.574 227.557 239.515 227.904C241.526 228.181 244.126 228.458 247.315 228.736C247.593 229.845 247.731 230.781 247.731 231.544C247.731 232.099 247.593 232.792 247.315 233.624C235.598 233.208 223.533 233 211.122 233C198.642 233 186.577 233.208 174.929 233.624C174.651 232.792 174.513 232.099 174.513 231.544C174.513 230.365 174.651 229.429 174.929 228.736C178.118 228.458 180.684 228.181 182.625 227.904C184.636 227.557 187.062 227.037 189.905 226.344C192.817 225.65 195.036 224.68 196.562 223.432C198.087 222.114 198.884 220.554 198.954 218.751C199.647 197.119 199.994 177.809 199.994 160.821C199.994 144.527 199.647 125.98 198.954 105.179H198.122L150.592 230.4H149.552L98.9019 102.683H97.7578C97.2031 119.532 96.9258 138.911 96.9258 160.821C96.9258 176.907 97.2725 195.697 97.9658 217.191C98.1045 223.501 105.766 227.349 120.951 228.736C121.297 229.915 121.471 230.851 121.471 231.544C121.471 232.237 121.297 232.931 120.951 233.624C109.926 233.208 100.081 233 91.4136 233C85.8667 233 76.5757 233.208 63.5405 233.624C63.1938 232.931 63.0205 232.237 63.0205 231.544C63.0205 230.365 63.1938 229.429 63.5405 228.736C78.8638 227.28 86.5254 223.432 86.5254 217.191C87.3574 195.559 87.7734 174.203 87.7734 153.125C87.7734 137.94 87.5654 121.82 87.1494 104.763C87.0801 101.851 86.9067 99.4243 86.6294 97.4829C86.3521 95.4722 85.832 93.7388 85.0693 92.2827C84.3066 90.8267 83.5093 89.6826 82.6772 88.8506C81.8452 88.0186 80.5625 87.2905 78.8291 86.6665C77.0957 85.9731 75.397 85.4878 73.7329 85.2104C72.1382 84.8638 69.8501 84.4824 66.8687 84.0664C66.5913 83.5117 66.4526 82.8877 66.4526 82.1943C66.4526 81.3623 66.5913 80.6689 66.8687 80.1143Z"/>
<path d="M10 10H302V302H10V10Z"/>
</mask>
<path d="M66.8687 80.1143C79.9038 80.6689 96.3018 80.9463 116.062 80.9463L156.312 189.942H156.832L198.746 80.9463H210.706C219.304 80.9463 231.438 80.6689 247.107 80.1143C247.385 81.2236 247.523 81.9863 247.523 82.4023C247.523 82.8877 247.385 83.7544 247.107 85.0024C244.611 85.2104 242.601 85.4185 241.075 85.6265C239.55 85.8345 237.504 86.1812 234.939 86.6665C232.443 87.1519 230.432 87.7412 228.907 88.4346C227.381 89.0586 226.029 89.96 224.851 91.1387C223.672 92.248 223.048 93.5308 222.979 94.9868C222.285 111.281 221.938 130.66 221.938 153.125C221.938 175.937 222.389 197.812 223.291 218.751C223.36 220.554 224.157 222.114 225.683 223.432C227.208 224.68 229.392 225.65 232.235 226.344C235.147 227.037 237.574 227.557 239.515 227.904C241.526 228.181 244.126 228.458 247.315 228.736C247.593 229.845 247.731 230.781 247.731 231.544C247.731 232.099 247.593 232.792 247.315 233.624C235.598 233.208 223.533 233 211.122 233C198.642 233 186.577 233.208 174.929 233.624C174.651 232.792 174.513 232.099 174.513 231.544C174.513 230.365 174.651 229.429 174.929 228.736C178.118 228.458 180.684 228.181 182.625 227.904C184.636 227.557 187.062 227.037 189.905 226.344C192.817 225.65 195.036 224.68 196.562 223.432C198.087 222.114 198.884 220.554 198.954 218.751C199.647 197.119 199.994 177.809 199.994 160.821C199.994 144.527 199.647 125.98 198.954 105.179H198.122L150.592 230.4H149.552L98.9019 102.683H97.7578C97.2031 119.532 96.9258 138.911 96.9258 160.821C96.9258 176.907 97.2725 195.697 97.9658 217.191C98.1045 223.501 105.766 227.349 120.951 228.736C121.297 229.915 121.471 230.851 121.471 231.544C121.471 232.237 121.297 232.931 120.951 233.624C109.926 233.208 100.081 233 91.4136 233C85.8667 233 76.5757 233.208 63.5405 233.624C63.1938 232.931 63.0205 232.237 63.0205 231.544C63.0205 230.365 63.1938 229.429 63.5405 228.736C78.8638 227.28 86.5254 223.432 86.5254 217.191C87.3574 195.559 87.7734 174.203 87.7734 153.125C87.7734 137.94 87.5654 121.82 87.1494 104.763C87.0801 101.851 86.9067 99.4243 86.6294 97.4829C86.3521 95.4722 85.832 93.7388 85.0693 92.2827C84.3066 90.8267 83.5093 89.6826 82.6772 88.8506C81.8452 88.0186 80.5625 87.2905 78.8291 86.6665C77.0957 85.9731 75.397 85.4878 73.7329 85.2104C72.1382 84.8638 69.8501 84.4824 66.8687 84.0664C66.5913 83.5117 66.4526 82.8877 66.4526 82.1943C66.4526 81.3623 66.5913 80.6689 66.8687 80.1143Z" fill="white"/>
<path d="M66.8687 80.1143C79.9038 80.6689 96.3018 80.9463 116.062 80.9463L156.312 189.942H156.832L198.746 80.9463H210.706C219.304 80.9463 231.438 80.6689 247.107 80.1143C247.385 81.2236 247.523 81.9863 247.523 82.4023C247.523 82.8877 247.385 83.7544 247.107 85.0024C244.611 85.2104 242.601 85.4185 241.075 85.6265C239.55 85.8345 237.504 86.1812 234.939 86.6665C232.443 87.1519 230.432 87.7412 228.907 88.4346C227.381 89.0586 226.029 89.96 224.851 91.1387C223.672 92.248 223.048 93.5308 222.979 94.9868C222.285 111.281 221.938 130.66 221.938 153.125C221.938 175.937 222.389 197.812 223.291 218.751C223.36 220.554 224.157 222.114 225.683 223.432C227.208 224.68 229.392 225.65 232.235 226.344C235.147 227.037 237.574 227.557 239.515 227.904C241.526 228.181 244.126 228.458 247.315 228.736C247.593 229.845 247.731 230.781 247.731 231.544C247.731 232.099 247.593 232.792 247.315 233.624C235.598 233.208 223.533 233 211.122 233C198.642 233 186.577 233.208 174.929 233.624C174.651 232.792 174.513 232.099 174.513 231.544C174.513 230.365 174.651 229.429 174.929 228.736C178.118 228.458 180.684 228.181 182.625 227.904C184.636 227.557 187.062 227.037 189.905 226.344C192.817 225.65 195.036 224.68 196.562 223.432C198.087 222.114 198.884 220.554 198.954 218.751C199.647 197.119 199.994 177.809 199.994 160.821C199.994 144.527 199.647 125.98 198.954 105.179H198.122L150.592 230.4H149.552L98.9019 102.683H97.7578C97.2031 119.532 96.9258 138.911 96.9258 160.821C96.9258 176.907 97.2725 195.697 97.9658 217.191C98.1045 223.501 105.766 227.349 120.951 228.736C121.297 229.915 121.471 230.851 121.471 231.544C121.471 232.237 121.297 232.931 120.951 233.624C109.926 233.208 100.081 233 91.4136 233C85.8667 233 76.5757 233.208 63.5405 233.624C63.1938 232.931 63.0205 232.237 63.0205 231.544C63.0205 230.365 63.1938 229.429 63.5405 228.736C78.8638 227.28 86.5254 223.432 86.5254 217.191C87.3574 195.559 87.7734 174.203 87.7734 153.125C87.7734 137.94 87.5654 121.82 87.1494 104.763C87.0801 101.851 86.9067 99.4243 86.6294 97.4829C86.3521 95.4722 85.832 93.7388 85.0693 92.2827C84.3066 90.8267 83.5093 89.6826 82.6772 88.8506C81.8452 88.0186 80.5625 87.2905 78.8291 86.6665C77.0957 85.9731 75.397 85.4878 73.7329 85.2104C72.1382 84.8638 69.8501 84.4824 66.8687 84.0664C66.5913 83.5117 66.4526 82.8877 66.4526 82.1943C66.4526 81.3623 66.5913 80.6689 66.8687 80.1143Z" stroke="white" stroke-width="20" mask="url(#path-2-outside-1_0_1)"/>
<path d="M10 10H302V302H10V10Z" stroke="white" stroke-width="20" mask="url(#path-2-outside-1_0_1)"/>
</svg>
